<svg class="svg-icon" style="width: 1em; height: 1em;vertical-align: middle;fill: currentColor;overflow: hidden;" viewBox="0 0 1024 1024" version="1.1" xmlns="http://www.w3.org/2000/svg"><path d="M512 536.9c-82.5 0-149.4-66.9-149.4-149.4S429.5 238.1 512 238.1 661.4 305 661.4 387.5 594.5 536.9 512 536.9z m0-249c-55 0-99.6 44.6-99.6 99.6 0 55 44.6 99.6 99.6 99.6 55 0 99.6-44.6 99.6-99.6 0-55-44.6-99.6-99.6-99.6z m167.6-115.6c-46.3-36.6-104.4-58.6-167.6-58.6-151.2 0-273.9 124.8-273.9 278.7 0 130.9 273.9 493.1 273.9 493.1s273.9-363.9 273.9-493.1c0-71.5-26.7-136.5-70.1-185.8l36-36c52 57.4 84 133.4 84 216.9 0 150.1-323.7 572.6-323.7 572.6S188.3 539.5 188.3 387.5c0-178.7 144.9-323.7 323.7-323.7 77.2 0 148.1 27.1 203.7 72.3l-36.1 36.2z" fill="#2c2c2c" /></svg>